#!OML:ASF E:\acrobat2\Project_11_07_03\Capture day 1\Session 1\Acrobat.ASF
:FULLY-SPECIFIED
:DEGREES
779
root 11.4502 18.0107 35.3314 3.29356 6.87041 -1.77905
lowerback -3.84943 -0.327739 4.17518
upperback 0.635982 -0.625517 -0.504009
thorax 2.76592 -0.241211 -2.9015
lowerneck 1.72727 -3.93502 -2.30613
upperneck 3.80198 -5.36785 3.45759
head 1.05271 -2.68064 1.43155
rclavicle 1.47846e-015 1.5704e-014
rhumerus -38.9249 -4.53118 -78.0418
rradius 25.8832
rwrist 6.39597
rhand 3.06486 -46.6947
rfingers 7.12502
rthumb 28.5225 -74.5396
lclavicle 1.47846e-015 1.5704e-014
lhumerus -17.424 -18.6535 85.6412
lradius 27.4268
lwrist 8.70495
lhand -4.96268 -11.7906
lfingers 7.12502
lthumb 20.8293 17.1114
rfemur -5.90116 2.62099 20.0606
rtibia 1.90413
rfoot -11.6919 -26.1128
rtoes 11.58
lfemur -9.87717 6.08419 -5.95879
ltibia 47.3182
lfoot -0.571992 -1.98465
ltoes 28.824
780
root 11.4303 18.0114 35.3918 3.30308 7.05844 -1.86887
lowerback -3.74228 -0.360243 4.37704
upperback 0.701169 -0.676039 -0.460872
thorax 2.76751 -0.262348 -2.97266
lowerneck 1.80738 -3.98146 -2.38414
upperneck 3.49992 -5.44022 4.02354
head 0.968335 -2.71563 1.629
rclavicle -1.94436e-015 0
rhumerus -38.2928 -3.93713 -78.0255
rradius 26.3519
rwrist 5.99819
rhand 2.96595 -46.5399
rfingers 7.12502
rthumb 28.428 -74.4006
lclavicle -1.94436e-015 0
lhumerus -17.8295 -18.133 85.6885
lradius 26.6349
lwrist 8.34731
lhand -4.8918 -11.5452
lfingers 7.12502
lthumb 20.8974 17.3492
rfemur -5.62116 2.56554 20.2807
rtibia 1.78159
rfoot -11.9505 -26.139
rtoes 11.8701
lfemur -10.7989 6.42247 -5.7677
ltibia 48.7304
lfoot -1.37964 -1.55176
ltoes 28.6019
781
root 11.4114 18.0135 35.4525 3.32065 7.21605 -1.85129
lowerback -3.65838 -0.382688 4.46991
upperback 0.779799 -0.708287 -0.4497
thorax 2.79811 -0.274895 -3.01479
lowerneck 1.90123 -4.01206 -2.58423
upperneck 3.21658 -5.49421 4.70772
head 0.895016 -2.74328 1.88801
rclavicle 3.0998e-015 1.8487e-014
rhumerus -37.6474 -3.37906 -77.974
rradius 26.8434
rwrist 5.63115
rhand 2.91631 -46.4051
rfingers 7.12502
rthumb 28.3806 -74.2737
lclavicle 3.0998e-015 1.8487e-014
lhumerus -18.2055 -17.512 85.7135
lradius 25.8
lwrist 7.94858
lhand -5.02965 -11.2705
lfingers 7.12502
lthumb 20.7649 17.6385
rfemur -5.32701 2.57057 20.3735
rtibia 1.64229
rfoot -12.2057 -26.1918
rtoes 12.0814
lfemur -11.6614 6.77214 -5.72526
ltibia 49.9611
lfoot -2.36297 -1.1158
ltoes 28.0382
782
root 11.3934 18.0171 35.513 3.34139 7.34046 -1.76571
lowerback -3.58087 -0.377005 4.50464
upperback 0.856109 -0.699865 -0.461359
thorax 2.83365 -0.267818 -3.04553
lowerneck 2.02554 -4.04832 -2.91096
upperneck 2.96297 -5.55927 5.49825
head 0.834185 -2.77859 2.20772
rclavicle 2.69167e-014 1.98785e-015
rhumerus -37.0265 -2.88883 -77.8674
rradius 27.3606
rwrist 5.25868
rhand 2.83111 -46.2806
rfingers 7.12502
rthumb 28.2992 -74.1627
lclavicle 2.69167e-014 1.98785e-015
lhumerus -18.5583 -16.8462 85.7404
lradius 24.9061
lwrist 7.51772
lhand -5.37909 -11.0037
lfingers 7.12502
lthumb 20.4291 17.9417
rfemur -5.033 2.61654 20.3895
rtibia 1.50834
rfoot -12.4323 -26.2583
rtoes 12.1242
lfemur -12.4631 7.1333 -5.77856
ltibia 50.9847
lfoot -3.36928 -0.639774
ltoes 26.9815
783
root 11.3758 18.0222 35.5726 3.36492 7.42521 -1.6829
lowerback -3.50385 -0.332467 4.55062
upperback 0.917062 -0.639807 -0.471985
thorax 2.858 -0.23532 -3.07849
lowerneck 2.16767 -4.10692 -3.30644
upperneck 2.75748 -5.65646 6.31497
head 0.790649 -2.83149 2.55299
rclavicle 1.32937e-015 -6.75868e-015
rhumerus -36.4471 -2.4916 -77.6845
rradius 27.8981
rwrist 4.89336
rhand 2.65066 -46.1599
rfingers 7.12502
rthumb 28.1267 -74.0704
lclavicle 1.32937e-015 -6.75868e-015
lhumerus -18.893 -16.1913 85.7872
lradius 23.9372
lwrist 7.07697
lhand -5.95448 -10.8118
lfingers 7.12502
lthumb 19.8761 18.1918
rfemur -4.75678 2.73214 20.4166
rtibia 1.38907
rfoot -12.6532 -26.3594
rtoes 12.0684
lfemur -13.2139 7.52531 -5.83558
ltibia 51.8151
lfoot -4.29388 -0.147284
ltoes 25.7558
784
root 11.3586 18.0292 35.6313 3.39468 7.46823 -1.60542
lowerback -3.42693 -0.260265 4.59719
upperback 0.959765 -0.542534 -0.478083
thorax 2.86695 -0.184974 -3.10493
lowerneck 2.32009 -4.1875 -3.68531
upperneck 2.5938 -5.78278 7.07725
head 0.758769 -2.89975 2.88186
rclavicle -2.75814e-015 3.18055e-014
rhumerus -35.8948 -2.17759 -77.4363
rradius 28.4385
rwrist 4.54927
rhand 2.37412 -46.0433
rfingers 7.12502
rthumb 27.8623 -73.9971
lclavicle -2.75814e-015 3.18055e-014
lhumerus -19.2299 -15.5247 85.8382
lradius 22.9052
lwrist 6.62476
lhand -6.72388 -10.7142
lfingers 7.12502
lthumb 19.1364 18.3643
rfemur -4.50447 2.92314 20.4562
rtibia 1.28649
rfoot -12.9022 -26.4986
rtoes 12.0489
lfemur -13.9172 7.9488 -5.88972
ltibia 52.4624
lfoot -5.10479 0.32856
ltoes 24.3532
785
root 11.3417 18.038 35.6888 3.42559 7.48052 -1.52203
lowerback -3.3436 -0.181065 4.62204
upperback 0.990643 -0.434394 -0.480551
thorax 2.86131 -0.130184 -3.11477
lowerneck 2.45155 -4.28526 -3.98969
upperneck 2.48375 -5.93022 7.72411
head 0.743624 -2.97801 3.16097
rclavicle -1.41137e-014 -1.5207e-014
rhumerus -35.3324 -1.96083 -77.1298
rradius 28.9443
rwrist 4.27968
rhand 2.02905 -45.9027
rfingers 7.12502
rthumb 27.5324 -73.9095
lclavicle -1.41137e-014 -1.5207e-014
lhumerus -19.5992 -14.7801 85.8689
lradius 21.858
lwrist 6.15192
lhand -7.62007 -10.671
lfingers 7.12502
lthumb 18.2744 18.4906
rfemur -4.2646 3.18196 20.4926
rtibia 1.19631
rfoot -13.2174 -26.6738
rtoes 12.2003
lfemur -14.5657 8.37554 -5.95286
ltibia 52.944
lfoot -5.81934 0.730148
ltoes 23.335
786
root 11.3253 18.0486 35.7455 3.44859 7.47428 -1.43467
lowerback -3.24949 -0.107206 4.6251
upperback 1.01962 -0.331946 -0.477085
thorax 2.8473 -0.0789028 -3.1066
lowerneck 2.51877 -4.39712 -4.21355
upperneck 2.45177 -6.09523 8.23877
head 0.759661 -3.06279 3.37996
rclavicle -1.60332e-014 -4.42296e-015
rhumerus -34.7395 -1.83034 -76.7774
rradius 29.4167
rwrist 4.0892
rhand 1.66854 -45.7599
rfingers 7.12502
rthumb 27.1876 -73.8211
lclavicle -1.60332e-014 -4.42296e-015
lhumerus -20.0162 -13.8621 85.8537
lradius 20.8496
lwrist 5.61409
lhand -8.55736 -10.6229
lfingers 7.12502
lthumb 17.3725 18.6207
rfemur -4.02015 3.48615 20.5265
rtibia 1.11096
rfoot -13.5821 -26.8736
rtoes 12.4518
lfemur -15.148 8.77968 -6.02229
ltibia 53.272
lfoot -6.46272 1.01341
ltoes 22.9344
787
root 11.3094 18.0608 35.8015 3.46137 7.45239 -1.31823
lowerback -3.14458 -0.0431319 4.58746
upperback 1.05423 -0.24021 -0.479754
thorax 2.83209 -0.0335532 -3.08261
lowerneck 2.54189 -4.51465 -4.36032
upperneck 2.45943 -6.2654 8.63526
head 0.79069 -3.14838 3.5435
rclavicle 3.46848e-014 -1.98785e-015
rhumerus -34.1211 -1.7092 -76.4228
rradius 29.886
rwrist 3.88717
rhand 1.32689 -45.6595
rfingers 7.12502
rthumb 26.8607 -73.7714
lclavicle 3.46848e-014 -1.98785e-015
lhumerus -20.485 -12.7281 85.7615
lradius 19.9248
lwrist 4.99482
lhand -9.46258 -10.5254
lfingers 7.12502
lthumb 16.5011 18.7929
rfemur -3.766 3.78355 20.5261
rtibia 1.03198
rfoot -13.9346 -27.061
rtoes 12.6213
lfemur -15.6572 9.16236 -6.13307
ltibia 53.4447
lfoot -7.03917 1.17023
ltoes 22.9074
788
root 11.2944 18.0742 35.8569 3.46272 7.41426 -1.19314
lowerback -3.03265 0.0112989 4.53683
upperback 1.09727 -0.160566 -0.487425
thorax 2.82047 0.00582167 -3.05734
lowerneck 2.53897 -4.63211 -4.42297
upperneck 2.47428 -6.43107 8.90764
head 0.821382 -3.23057 3.64789
rclavicle 1.48095e-014 -1.46852e-014
rhumerus -33.4287 -1.59172 -76.0788
rradius 30.264
rwrist 3.6622
rhand 1.00846 -45.5599
rfingers 7.12502
rthumb 26.5559 -73.7183
lclavicle 1.48095e-014 -1.46852e-014
lhumerus -21.001 -11.4267 85.5788
lradius 19.1019
lwrist 4.34407
lhand -10.2913 -10.3757
lfingers 7.12502
lthumb 15.7031 19.0071
rfemur -3.51171 4.06042 20.5161
rtibia 0.973666
rfoot -14.2588 -27.22
rtoes 12.6479
lfemur -16.0978 9.52539 -6.2613
ltibia 53.468
lfoot -7.55848 1.20105
ltoes 23.2127
789
root 11.2806 18.0878 35.9115 3.45656 7.35357 -1.08047
lowerback -2.91714 0.0605707 4.50218
upperback 1.14419 -0.0884574 -0.495294
thorax 2.81009 0.0418275 -3.04183
lowerneck 2.49715 -4.74768 -4.40385
upperneck 2.5101 -6.59029 9.05322
head 0.857561 -3.30783 3.69136
rclavicle -1.54493e-014 9.57894e-015
rhumerus -32.7471 -1.48196 -75.7415
rradius 30.7014
rwrist 3.41123
rhand 0.776324 -45.534
rfingers 7.12502
rthumb 26.3337 -73.7258
lclavicle -1.54493e-014 9.57894e-015
lhumerus -21.5604 -10.0202 85.3103
lradius 18.3774
lwrist 3.70616
lhand -10.9937 -10.1787
lfingers 7.12502
lthumb 15.0265 19.256
rfemur -3.27338 4.30678 20.5184
rtibia 0.950125
rfoot -14.539 -27.3322
rtoes 12.5059
lfemur -16.4785 9.88227 -6.38631
ltibia 53.3477
lfoot -8.03085 1.12975
ltoes 23.5307
